<svg width="3168" height="782" viewBox="0 0 3168 782" fill="none" xmlns="http://www.w3.org/2000/svg">
<g filter="url(#filter0_i_16_9562)">
<path d="M2282.27 2.22519C2281.07 3.42519 2278.27 8.75851 2276 13.8252C2265.6 36.8919 2258.54 50.0919 2254.4 54.0919C2247.87 60.3585 2236.14 67.0252 2221.6 72.6252C2202.54 79.8252 2196.27 83.2919 2194 87.6919C2190.4 94.6252 2193.34 97.4252 2211.07 103.959C2227.87 110.225 2243.47 118.359 2250.4 124.492C2257.47 130.892 2265.34 144.759 2272.14 163.025C2276.4 174.759 2282.94 183.825 2286.94 183.825C2291.2 183.825 2295.87 178.092 2300 168.225C2309.07 146.225 2317.6 130.625 2323.47 125.292C2330 119.159 2342.67 112.492 2361.74 105.025C2376.27 99.4252 2381.34 95.6919 2381.34 90.8919C2381.34 85.0252 2375.47 81.1585 2353.34 72.6252C2338.4 66.7585 2328.14 61.2919 2320.27 54.7585C2314 49.6918 2308.94 40.6252 2300.8 20.6252C2293.34 1.95853 2287.6 -3.64148 2282.27 2.22519Z" fill="#F38F53"/>
<path d="M1707.2 74.4921C1697.6 78.3587 1695.34 90.6254 1693.34 152.492C1690.4 238.492 1694.67 270.492 1711.6 291.692C1719.2 301.292 1727.74 308.625 1739.6 315.825C1753.34 324.225 1756.8 329.559 1755.6 341.025C1753.6 361.025 1740.54 458.225 1733.87 503.825C1724.67 566.359 1724.14 578.225 1729.87 592.892C1736.54 609.959 1746.8 620.092 1764 626.625C1770 628.892 1773.34 629.292 1782.14 628.759C1804.27 627.425 1818.67 616.092 1825.34 594.759C1830.54 578.225 1829.6 559.025 1820.67 496.759C1811.87 435.159 1801.34 348.892 1801.34 339.025C1801.34 327.159 1803.47 323.692 1815.07 316.892C1828.27 309.159 1841.6 295.559 1846.67 284.892C1856.14 264.625 1858 243.559 1856.8 175.159C1855.87 121.825 1854.4 94.2254 1852 85.9587C1849.87 78.7588 1844 73.1588 1838.67 73.1588C1832.54 73.1588 1830 75.0254 1827.2 81.4254C1825.2 86.4921 1824.8 93.2921 1824.14 139.159C1823.34 190.492 1823.34 191.159 1820.27 195.425C1814.94 203.025 1803.47 204.359 1797.6 198.092C1793.07 193.292 1792.4 189.559 1791.47 166.492C1788 83.9587 1787.87 83.5587 1781.34 76.8921C1776.8 72.4921 1772.4 72.092 1767.47 75.9587C1760.67 81.2921 1760.67 81.0255 1760 137.825C1759.47 176.759 1758.94 191.959 1757.74 194.092C1755.47 197.959 1747.87 202.492 1743.47 202.492C1738.54 202.492 1732.8 199.292 1729.87 194.892C1727.6 191.559 1727.34 186.225 1725.87 139.159C1724.27 83.5588 1723.74 79.9587 1717.2 75.2921C1713.74 72.8921 1711.47 72.7587 1707.2 74.4921ZM1788 556.492C1803.47 564.492 1803.47 587.292 1788 595.425C1762.4 609.025 1743.6 572.225 1768.54 557.025C1773.47 553.959 1782.67 553.692 1788 556.492Z" fill="#F38F53"/>
<path d="M1905.34 85.2921C1894.14 87.1587 1894 87.4254 1895.74 107.425C1896.67 116.759 1897.47 131.959 1897.47 141.159C1897.6 150.359 1898 160.092 1898.27 162.759L1898.94 167.559L1908.54 168.359C1945.47 171.292 1953.6 172.225 1961.34 173.959C1985.07 179.159 1999.07 188.625 2008 205.292C2020.8 229.425 2018 257.692 2000.54 277.959C1996 283.292 1991.74 286.492 1983.6 290.492C1964.54 299.825 1956 301.425 1917.87 302.359C1890.94 303.025 1883.87 303.559 1882 305.159C1880.67 306.225 1874.8 313.292 1869.07 320.892C1863.2 328.359 1855.34 337.825 1851.74 341.959L1844.94 349.292L1845.87 362.625C1846.8 376.759 1847.87 380.225 1851.87 382.492C1853.34 383.292 1872.94 383.825 1901.47 383.959C1952.54 384.092 1962 384.759 1981.34 389.959C2011.6 397.959 2029.07 414.492 2036 441.959C2039.34 454.892 2039.34 465.959 2036.14 478.892C2032.8 491.425 2029.87 497.292 2022.54 505.692C2012.67 516.759 1998.67 524.092 1978.94 528.359C1966.27 531.159 1931.87 533.159 1894.4 533.159H1864V536.759C1864 538.892 1864.94 543.825 1866 547.825C1869.87 562.225 1868 588.892 1862 604.225C1856.8 617.292 1857.07 617.425 1927.07 617.292C2000.67 617.159 2017.07 615.559 2046.67 605.559C2081.07 594.092 2104.54 578.492 2122 555.825C2129.07 546.625 2140.14 524.892 2143.74 512.892C2160 459.959 2146.54 402.225 2109.87 367.959C2098.8 357.559 2083.34 349.292 2063.74 343.025C2057.2 340.892 2052 338.625 2052 337.825C2052 337.025 2055.47 334.759 2059.74 332.625C2086.27 319.692 2107.07 299.425 2117.34 276.625C2124.8 259.825 2127.34 246.625 2127.34 224.492C2127.2 195.292 2122.67 176.225 2110.8 155.559C2087.6 114.892 2043.6 90.7587 1982.67 85.2921C1964.4 83.5587 1915.74 83.692 1905.34 85.2921Z" fill="#F38F53"/>
<path d="M2948 91.1588C2943.07 102.626 2941.2 112.492 2940.4 130.492C2939.47 151.959 2940.67 158.892 2948 174.092C2951.87 182.092 2955.87 187.559 2962.4 194.092C2970.54 202.492 2982.4 211.826 2984.8 211.826C2986.54 211.826 2984 197.159 2979.2 181.026C2970.14 150.226 2967.34 135.826 2970.67 135.826C2971.47 135.826 2974.27 138.092 2977.07 141.026C2987.6 151.959 2999.6 180.892 3002.8 203.426C3003.6 209.559 3004.8 214.492 3005.47 214.492C3007.2 214.492 3009.2 208.892 3012 195.559C3018 167.826 3016.94 155.692 3006.67 135.026C3001.2 123.959 2998.27 119.692 2989.74 111.159C2976.8 98.3588 2957.6 85.1588 2952 85.1588C2951.2 85.1588 2949.47 87.8255 2948 91.1588Z" fill="#63B0AA"/>
<path d="M29.737 90.4918C18.0036 94.6251 11.337 100.092 6.80363 109.558C4.53696 114.092 2.13696 121.025 1.33696 124.892C0.536961 129.425 0.00362812 212.625 0.00362812 351.558C0.00362812 590.492 -0.396372 577.825 7.20363 593.025C11.4703 601.425 21.337 609.958 29.8703 612.758C40.137 615.958 64.937 616.492 219.337 616.492C353.47 616.492 359.604 616.358 365.87 613.958C382.27 607.692 392.537 587.025 389.337 566.892C386.537 549.292 379.204 538.625 365.337 531.958C356.937 527.958 363.337 528.092 203.337 527.558C114.67 527.158 116.804 527.292 109.47 519.425C105.604 515.158 105.604 515.158 107.07 450.625C107.737 423.158 108.804 400.758 109.604 399.158C110.404 397.425 112.27 395.425 113.87 394.625C115.737 393.692 148.27 393.025 220.67 392.758C300.27 392.492 326.004 391.958 330.137 390.625C338.404 388.092 348.004 380.092 351.87 372.758C356.27 364.225 357.47 342.758 354.137 331.558C351.337 321.958 342.537 311.958 333.07 307.692L326.004 304.492L221.337 303.825C111.337 303.158 112.537 303.158 109.337 297.158C107.47 293.692 107.47 190.358 109.47 186.092C112.804 178.892 107.204 179.158 236.004 178.492L355.337 177.825L362.537 173.825C377.204 165.692 383.204 152.625 382.404 130.092C382.004 118.358 381.47 115.425 378.137 108.625C373.87 99.9584 366.804 94.0917 356.27 90.225C350.537 88.0917 337.87 87.9584 193.337 87.9584C44.2703 87.9584 36.2703 88.0917 29.737 90.4918Z" fill="#63B0AA"/>
<path d="M2504.67 110.892C2490.8 115.559 2481.87 122.892 2475.34 134.625C2470.8 143.159 2469.6 155.159 2469.34 194.625C2469.34 211.559 2468.94 226.092 2468.54 226.625C2468.14 227.292 2460.14 227.825 2450.67 227.825C2429.34 227.825 2421.47 230.225 2412 239.825C2404.27 247.425 2400.8 256.625 2400.8 269.825C2400.67 281.292 2405.34 291.825 2413.87 300.225C2423.07 309.292 2428.54 310.892 2450.27 311.559L2469.2 312.092L2469.74 421.025C2470.14 515.425 2470.54 531.025 2472.4 539.159C2480.14 572.759 2494 594.225 2516 606.759C2528.94 614.225 2557.34 621.825 2579.6 623.825C2611.87 626.625 2649.34 617.959 2663.07 604.359C2671.87 595.692 2675.07 586.492 2674.4 571.825C2673.6 558.092 2670.14 549.825 2661.47 541.425C2653.07 533.559 2644.67 531.159 2629.47 532.492C2601.74 535.159 2591.74 532.759 2583.07 521.292C2574.54 510.225 2574.67 511.825 2574.67 406.892V311.825H2600.4C2630.14 311.825 2635.47 310.759 2647.07 302.492C2652.94 298.225 2655.47 295.292 2658.8 288.359C2662.67 280.625 2663.2 278.225 2663.2 268.625C2663.2 259.692 2662.67 256.492 2659.87 250.359C2655.74 241.692 2648 234.759 2637.34 230.359C2630.54 227.559 2627.87 227.292 2603.34 227.025C2588.67 227.025 2576.14 226.759 2575.34 226.625C2574.54 226.625 2574 212.492 2574 187.425C2574 154.492 2573.6 147.425 2571.74 141.159C2565.2 120.092 2550.4 110.359 2524 109.559C2514.94 109.292 2508.14 109.825 2504.67 110.892Z" fill="#F38F53"/>
<path d="M3096.27 129.825C3068 136.225 3048.14 151.159 3035.74 175.292C3026.54 193.159 3020.4 211.825 3023.6 211.825C3024 211.825 3033.2 205.959 3043.87 198.625C3068.54 181.959 3088.67 169.959 3097.47 166.359C3104.8 163.559 3113.47 163.425 3114.27 166.092C3115.6 170.092 3102.54 181.159 3068 205.159C3053.2 215.559 3033.07 233.425 3034.54 234.892C3035.2 235.559 3040.67 237.825 3046.8 239.959C3056.14 243.159 3060.14 243.825 3070.94 243.825C3088 243.825 3095.47 242.092 3110.67 234.892C3120.94 229.959 3125.2 227.025 3132.67 219.292C3146.67 205.159 3158.27 181.025 3165.34 151.825C3169.47 134.359 3169.34 133.692 3161.07 131.025C3151.34 127.825 3108.4 127.159 3096.27 129.825Z" fill="#63B0AA"/>
<path d="M2883.07 221.292C2812.8 228.092 2758.27 263.958 2728.4 322.892C2718.67 342.358 2711.07 370.758 2707.87 399.292C2705.87 418.492 2707.07 452.225 2710.67 469.825C2720.94 520.892 2747.47 563.558 2785.47 589.825C2817.74 612.225 2847.87 622.758 2891.74 626.758C2938.8 631.025 2992.54 617.692 3030.54 592.092C3052.4 577.292 3069.74 557.558 3075.47 540.625C3078.14 532.758 3077.34 527.158 3072 516.225C3064.94 501.958 3049.6 492.758 3033.2 492.892C3020.14 492.892 3012.54 497.025 2988.67 516.492C2973.6 528.892 2962.8 534.892 2946 540.758C2931.87 545.558 2930.67 545.692 2913.34 545.692C2893.07 545.825 2884.67 543.958 2868.14 536.358C2855.07 530.358 2845.6 523.025 2836.67 512.225C2828.67 502.492 2819.87 485.425 2817.47 475.158C2815.87 467.958 2815.2 456.225 2816.27 455.158C2816.67 454.758 2867.6 454.492 2929.34 454.492C3049.87 454.492 3051.07 454.358 3064.4 447.692C3074.14 442.758 3078.54 438.625 3082.67 430.358C3097.6 401.025 3086 338.625 3057.74 295.958C3034.14 260.358 2990.14 232.625 2944.54 224.625C2917.6 219.825 2904.8 219.158 2883.07 221.292ZM2918.4 303.158C2930.67 305.692 2947.47 313.425 2956.8 320.892C2964.67 327.025 2975.87 343.025 2979.74 353.558C2982.54 361.025 2986.67 379.025 2986.67 383.825C2986.67 386.492 2986.54 386.492 2901.74 386.225L2816.67 385.825L2817.07 378.492C2818.14 362.492 2831.47 337.292 2845.87 324.225C2859.6 311.558 2884.14 301.692 2902.4 301.292C2905.6 301.158 2912.8 302.092 2918.4 303.158Z" fill="#F38F53"/>
<path d="M593.337 223.158C567.337 226.358 546.404 232.225 523.337 243.158C482.004 262.625 458.137 300.358 468.404 330.092C471.47 338.892 479.07 347.558 488.137 352.492C494.27 355.825 497.204 356.492 507.737 356.892C519.47 357.425 520.537 357.292 528.804 353.158C535.204 350.092 540.537 345.825 549.07 336.892C568.67 316.625 581.337 308.358 600.137 303.692C612.537 300.625 634.404 300.092 644.67 302.625C655.47 305.292 669.204 312.892 676.137 319.958C689.604 333.692 699.47 365.425 692.537 372.358C689.337 375.558 679.07 377.958 649.604 382.492C544.537 398.358 518.004 405.692 487.337 427.558C457.87 448.492 441.337 478.892 441.337 511.958C441.337 535.692 447.204 557.025 458.67 574.358C472.137 594.892 491.204 609.558 514.537 617.158C558.137 631.425 596.804 629.425 642.67 610.492C659.87 603.425 683.737 585.158 692.804 572.092C693.87 570.492 695.337 569.158 696.004 569.158C696.67 569.158 698.137 572.358 699.337 576.092C700.67 579.958 703.87 587.292 706.404 592.358C717.337 613.292 730.67 620.625 758.004 620.358C769.604 620.225 774.27 619.692 780.137 617.292C790.67 613.292 797.47 606.892 801.87 597.158C807.47 584.758 807.604 577.958 802.67 559.158C798.404 542.492 795.204 515.958 796.537 507.558C798.004 498.092 797.47 366.225 796.004 353.158C790.804 310.225 776.27 280.225 750.004 258.092C739.87 249.558 718.537 238.492 701.204 232.625C670.67 222.358 629.47 218.758 593.337 223.158ZM690.804 444.492C691.337 446.625 691.737 455.692 691.87 464.625C692.27 503.958 677.47 529.825 646.004 545.158C622.27 556.758 596.137 557.692 575.204 547.958C564.404 542.892 556.937 535.958 552.404 526.758C549.337 520.358 548.804 517.425 548.67 507.825C548.67 498.092 549.204 495.425 552.404 488.892C559.604 474.358 574.137 464.492 600.537 456.492C623.337 449.692 674.804 439.825 685.337 440.225C689.337 440.492 690.137 441.025 690.804 444.492Z" fill="#63B0AA"/>
<path d="M1290.14 224.092C1268.8 226.892 1252.14 242.892 1249.74 262.359C1248.8 270.892 1250.27 275.292 1276.67 341.159C1288.54 370.892 1304.27 410.492 1311.74 429.159C1324.94 462.359 1330.8 476.759 1361.34 551.825C1390.14 622.225 1388.27 617.292 1387.6 623.825C1386.8 632.225 1378.14 653.559 1371.07 664.092C1362.94 676.625 1349.47 688.625 1340.94 691.159C1332.4 693.692 1320.8 693.692 1307.6 691.159C1293.2 688.359 1287.07 688.625 1279.34 692.359C1263.2 699.825 1254.14 718.759 1257.34 738.759C1259.2 751.159 1262.27 757.825 1269.2 764.759C1281.07 776.492 1298 781.292 1328 781.292C1383.07 781.292 1423.34 761.559 1454.94 718.892C1464.94 705.292 1475.07 684.359 1487.34 651.825C1490.54 643.425 1496.27 628.359 1500 618.492C1503.87 608.625 1509.2 594.225 1512 586.492C1514.8 578.759 1521.74 560.492 1527.34 545.825C1532.94 531.159 1543.47 503.292 1550.8 483.825C1567.07 440.625 1569.34 434.759 1588.8 384.492C1597.2 362.492 1606.54 338.225 1609.34 330.492C1612.14 322.759 1617.34 309.292 1620.67 300.492C1628.94 279.425 1630.67 272.892 1630.67 262.492C1630.67 244.892 1618.94 232.225 1596.67 225.692C1580.8 221.159 1561.2 223.559 1548 231.959C1533.07 241.425 1531.47 245.159 1487.47 377.825C1473.07 421.025 1457.47 467.825 1452.67 481.825C1447.87 495.692 1444 507.425 1444 507.692C1444 510.225 1440.8 504.092 1438.14 496.492C1436.27 491.292 1432.67 481.425 1430 474.492C1427.34 467.559 1422.54 453.959 1419.34 444.492C1414 428.625 1405.07 403.425 1390 361.825C1370.54 307.692 1365.87 294.759 1360.4 279.159C1351.74 254.492 1347.2 245.692 1338.67 237.159C1332.4 230.759 1330 229.292 1321.34 226.759C1309.6 223.292 1300.94 222.625 1290.14 224.092Z" fill="#63B0AA"/>
<path d="M2271.2 226.492C2258.54 229.158 2248.27 236.492 2241.87 247.292C2234.67 259.558 2234.67 258.625 2234.67 422.492C2234.67 512.225 2235.2 577.025 2236 581.558C2238.4 596.625 2245.6 607.692 2257.74 615.425C2264.8 619.958 2282 623.025 2294.27 621.958C2314.27 620.358 2326 612.492 2334.14 595.292L2338.67 585.692L2338.4 421.825L2338 257.825L2334.27 250.225C2329.47 240.492 2319.34 231.292 2310.27 228.358C2302.4 225.825 2279.47 224.758 2271.2 226.492Z" fill="#F38F53"/>
<path d="M898.937 231.959C890.137 235.425 883.337 242.092 878.937 251.559C876.271 257.559 875.737 260.759 875.737 269.559C875.871 275.425 876.937 283.159 878.004 286.625C880.937 295.292 889.071 304.092 897.604 307.959L904.671 311.159L984.404 311.559C1028.14 311.692 1064 312.225 1064 312.625C1064 313.159 1059.87 318.092 1054.94 323.692C1050 329.292 1040.8 340.092 1034.54 347.825C1028.14 355.559 1014.27 372.359 1003.47 385.159C992.671 397.959 973.737 420.492 961.337 435.159C949.071 449.825 931.204 471.025 921.871 482.225C865.471 549.025 861.071 555.825 861.204 574.759C861.204 595.025 868.271 607.825 883.337 614.759L890.004 617.825H1032.67C1192 617.825 1184.27 618.225 1195.6 608.492C1203.07 602.225 1206.67 594.092 1207.6 582.225C1208.94 564.625 1203.07 549.559 1192 541.825C1181.74 534.759 1181.07 534.625 1088.94 533.692C1041.87 533.159 1003.07 532.625 1002.8 532.359C1002.4 531.959 1008.94 524.092 1026.8 503.825C1034.4 495.159 1045.07 482.492 1078 443.025C1195.74 301.825 1195.47 302.225 1200.27 289.825C1207.47 271.559 1202.27 247.692 1189.07 238.359C1186.94 236.759 1181.07 234.092 1176.27 232.359L1167.34 229.159L1036.67 229.292C908.404 229.292 905.871 229.292 898.937 231.959Z" fill="#63B0AA"/>
</g>
<defs>
<filter id="filter0_i_16_9562" x="0" y="0" width="3178" height="791.292" filterUnits="userSpaceOnUse" color-interpolation-filters="sRGB">
<feFlood flood-opacity="0" result="BackgroundImageFix"/>
<feBlend mode="normal" in="SourceGraphic" in2="BackgroundImageFix" result="shape"/>
<feColorMatrix in="SourceAlpha" type="matrix" values="0 0 0 0 0 0 0 0 0 0 0 0 0 0 0 0 0 0 127 0" result="hardAlpha"/>
<feOffset dx="10" dy="10"/>
<feGaussianBlur stdDeviation="5"/>
<feComposite in2="hardAlpha" operator="arithmetic" k2="-1" k3="1"/>
<feColorMatrix type="matrix" values="0 0 0 0 0 0 0 0 0 0 0 0 0 0 0 0 0 0 0.25 0"/>
<feBlend mode="normal" in2="shape" result="effect1_innerShadow_16_9562"/>
</filter>
</defs>
</svg>
